<?xml version="1.0" encoding="utf-8"?>
<!-- Generator: Adobe Illustrator 22.0.1, SVG Export Plug-In . SVG Version: 6.00 Build 0)  -->
<svg version="1.1" id="Layer_1" xmlns="http://www.w3.org/2000/svg" xmlns:xlink="http://www.w3.org/1999/xlink" x="0px" y="0px"
	 viewBox="0 0 1000 1000" style="enable-background:new 0 0 1000 1000;" xml:space="preserve">
<style type="text/css">
	.st0{fill-rule:evenodd;clip-rule:evenodd;fill:#FDDF35;}
	.st1{fill-rule:evenodd;clip-rule:evenodd;fill:#FFF500;}
	.st2{fill:none;}
	.st3{fill:#023F78;}
	.st4{fill-rule:evenodd;clip-rule:evenodd;fill:none;stroke:#023F78;stroke-width:8;stroke-miterlimit:2.4142;}
	.st5{fill-rule:evenodd;clip-rule:evenodd;fill:none;stroke:#023F78;stroke-width:8;stroke-miterlimit:10;}
	.st6{fill:#9DB0B7;stroke:#023F78;stroke-width:4;stroke-miterlimit:10;}
	.st7{fill:#023F78;stroke:#023F78;stroke-width:7;stroke-miterlimit:10;}
</style>
<g>
	<circle class="st0" cx="499.5" cy="499.5" r="499.5"/>
	<polygon class="st1" points="956.5,575.7 954.7,573.7 954.7,577.9 956.5,575.7 	"/>
	<circle class="st2" cx="498.3" cy="504.2" r="303"/>
	<path class="st3" d="M129,532.3l21.3-8.4l-1.6-23.3l15.4,17.7l21.8-8.8l-12.4,19.6l15,17.6l-22.8-5.7L152.9,561l-1.6-23.2
		L129,532.3L129,532.3z M137.2,420.5l22.9-1.4l5.6-22.6l9.2,21.6l23.4-1.6l-17.9,14.8l8.9,21.4l-19.9-12.5l-18.3,15l5.6-22.6
		L137.2,420.5L137.2,420.5z M178.1,317.9l22.3,5.4l12-20l2.4,23.3l22.9,5.3l-21.4,8.9l2.2,23.1l-15.4-17.8l-21.8,9l12-19.9
		L178.1,317.9L178.1,317.9z M246.7,231.9l20,11.3l17.1-15.9l-4.1,23.1l20.5,11.4l-23.1,2.7l-4.2,22.8L263,266l-23.5,2.6l17-15.9
		L246.7,231.9L246.7,231.9z M341,169l15.2,17.2l21.3-9.5l-11.4,20.5l15.7,17.5l-22.7-5l-11.4,20.2l-2.4-23.4l-23.1-5.2l21.2-9.5
		L341,169L341,169z M446.9,137.5l9.5,20.9l23.2-2.8l-16.9,16.3l9.9,21.3l-20.3-11.4l-16.8,15.9l4.5-23.1l-20.5-11.7l23.1-2.8
		L446.9,137.5L446.9,137.5z M557.9,138l3,22.7l23,4.1L563,175.4l3.2,23.3l-16-16.8l-20.7,10.3l11.1-20.8l-16.2-17.2l22.9,4
		L557.9,138L557.9,138z M663.6,172.1l-3.8,22.6l20.8,10.6l-23.1,4.1l-3.7,23.2l-10.4-20.8l-22.9,3.8l16.6-16.6l-10.5-21.2l20.7,10.6
		L663.6,172.1L663.6,172.1z M753.5,235.8l-9.9,20.7l17.1,15.9l-23.3-2.5l-10,21.3l-4.3-22.8l-23-2.6l20.6-11.4l-4.3-23.2l17,15.9
		L753.5,235.8L753.5,235.8z M820.7,322l-15.2,17.2l12,20l-21.7-8.8l-15.5,17.7l2.2-23.1l-21.4-8.9l22.9-5.3l2.3-23.5l12,19.9
		L820.7,322L820.7,322z M860.6,425.7l-19.6,12l5.6,22.6l-18.2-14.8l-20,12.4l8.8-21.5l-17.9-14.8l23.5,1.7l9.1-21.8l5.6,22.6
		L860.6,425.7L860.6,425.7z M867.6,537.6l-22.3,5.3l-1.6,23.3l-12.8-19.7l-22.8,5.6l15-17.7L810.7,515l21.8,8.8l15.4-17.9l-1.6,23.2
		L867.6,537.6L867.6,537.6z"/>
	<path class="st3" d="M202.3,796.7l-8.6-10.2l0.5-0.5c0.9-0.8,1.5-1.4,1.7-1.9s0.1-1.2-0.3-2.2c-0.5-1.1-2.7-4-6.7-8.8
		c-4.2-5-7.1-8.1-8.5-9.2c-1.4-1-2.7-1-4.1,0.2c-1.3,1.1-1.9,2.2-1.6,3.4c0.3,1.1,1.5,3,3.8,5.8c8.4,10,13.3,16.1,14.8,18.5
		c1.9,3.1,2.7,5.8,2.2,8.1c-0.5,2.3-2.4,4.8-5.6,7.5c-2.8,2.3-5.2,3.7-7.4,4.1c-2.1,0.4-4.3,0-6.5-1.3c-1.3-0.8-3.3-2.5-6-5.2
		c-2.7-2.7-5.4-5.6-8-8.8c-5.7-6.8-9.3-11.4-10.8-13.8c-1.5-2.4-2.1-4.6-2-6.8c0.1-1.6,0.5-3.1,1.4-4.4c0.8-1.3,2.4-2.9,4.6-4.7
		l8.5,10.1c-1.5,1.2-2,2.5-1.5,3.7c0.5,1.3,2.4,3.9,5.8,7.9c1.1,1.3,2.6,3,4.5,5l2.4,2.6c1.2,1.3,2.3,2.1,3.2,2.3
		c0.9,0.2,1.8,0,2.7-0.8c1.2-1,1.6-2,1.4-3.1c-0.3-1.1-1.4-2.8-3.5-5.3l-5.7-7l-5.6-6.8c-2.5-3-4.2-5.4-5.1-7.2
		c-0.9-1.8-1.2-3.6-0.9-5.4c0.4-2.7,2.3-5.6,5.8-8.5c5.1-4.3,9.7-5.3,13.7-2.8c3.3,2,9.2,8,17.5,17.9c5.4,6.5,8.7,11.1,10,13.9
		c1,2.4,1.2,4.5,0.5,6.4c-0.7,1.9-2.3,3.8-4.8,5.7c-0.3,0.3-0.5,0.4-0.6,0.4L202.3,796.7L202.3,796.7z M110.2,723.9l-7.2-11.5
		l21.4-13.4l2.2-1.4l4.8-2.4c4.6-1.9,8.7-1.5,12.3,1.1c1.6,1.2,3.1,2.7,4.6,4.7c1.5,2,3.9,5.7,7.3,11.1c5.2,8.2,8.3,13.9,9.4,16.8
		c1.1,3,1.1,5.9-0.1,8.7c-1.1,2.8-4,5.6-8.6,8.5l-23,14.4l-7.1-11.4l19.7-12.3l1.6-1c3.1-2,4.8-3.7,5.1-5.2c0.3-1.5-0.7-4-2.8-7.5
		l-3.1-5.1l-3-4.7c-1.9-3-3.6-4.7-5.1-5c-1.5-0.3-3.8,0.4-6.8,2.3l-1.5,0.9L110.2,723.9L110.2,723.9z M100.4,738.6l6.5-7l12.6,14.2
		l-3.7,4.1L100.4,738.6L100.4,738.6z M89.1,683.6l15.4-6.2l-2.6-6.4l-22.2-10.7l-7-17.3l29.8,15.3l10.2-34.4l7.4,18.3l-8.2,24.7
		l2.6,6.4l15.6-6.3l5,12.5l-41,16.6L89.1,683.6L89.1,683.6z M111.1,616.9L68,626.8l-9.3-40.1c-1.2-5.3-1.1-9.2,0.5-11.9
		c1.6-2.6,4.8-4.5,9.8-5.7c4.4-1,7.7-1,9.9,0c1.4,0.7,2.8,2.2,4.2,4.6c0.2,0.4,0.5,0.9,0.9,1.6c0-0.7-0.1-1.3-0.1-1.6
		c-0.1-1.9-0.1-3.2,0.1-4c0.2-0.8,0.6-1.6,1.2-2.4c1.1-1.3,2.9-2.2,5.6-2.8l1.4-0.3l6.4-1.5l3.1,13.3l-4.1,1
		c-1.9,0.4-3.2,0.8-3.9,1.1c-0.7,0.3-1.2,0.8-1.6,1.3c-0.6,1.1-0.7,2.7-0.2,4.8l5.1,21.9l11.1-2.6L111.1,616.9L111.1,616.9z
		 M86.5,608.7l-4.6-19.8l-0.5-2.1l-0.6-2.3c-0.5-1.5-1.2-2.4-2.1-2.8c-0.9-0.4-2.3-0.3-4.2,0.1c-2.5,0.6-3.9,1.3-4.4,2.3
		c-0.4,1-0.3,3.1,0.4,6.3l4.8,20.8L86.5,608.7L86.5,608.7z M50.6,526.4L50,515.7c-0.3-4.5-0.3-7.9,0-10.1c0.3-2.2,1-4.1,2.2-5.7
		c1.5-2,3.4-3.4,5.9-4.3c2.5-0.9,6.5-1.5,12.1-1.9c5.4-0.4,9-0.5,10.8-0.4c4.9,0.4,8.4,2.4,10.6,6.1c1.9,3.3,3.3,11.7,4.3,25.3
		c0.4,5.5,0.5,9.9,0.5,13.2c-0.1,4.2-0.9,7.4-2.4,9.7c-1.5,2.3-3.8,3.9-7.1,4.9c-1.8,0.6-5.1,1-9.9,1.4c-7.1,0.5-12.1,0.6-14.7,0.2
		c-2.6-0.4-4.8-1.5-6.5-3.3c-2.3-2.5-3.7-7.5-4.3-14.9L50.6,526.4L50.6,526.4z M61,519.7c0.7,9.5,1.2,15,1.6,16.6
		c0.5,2,1.5,3.3,3,3.9c1.4,0.6,3.9,0.8,7.5,0.5c4.8-0.3,7.9-0.9,9.4-1.6c1.5-0.7,2.3-2.1,2.6-4.2c0.2-1.6,0.2-4.6-0.1-8.8
		c-0.4-5.7-0.8-9.7-1.1-11.8c-0.3-2.2-0.8-3.8-1.5-4.9c-0.6-1.1-1.7-1.8-3.2-2.1c-1.5-0.3-4.2-0.3-8,0c-4.4,0.3-7.3,1-8.6,2
		c-0.8,0.6-1.3,1.7-1.6,3.2C60.8,514,60.8,516.4,61,519.7L61,519.7z M59.8,401l43.8,6.2l-1.8,12.6l-33.4-4.7l30.6,24l-1.5,10.7
		l-36,14.4l33.4,4.7l-1.8,12.6l-43.8-6.2l3-21.2l31.3-12l-26.8-20L59.8,401L59.8,401z M86.4,323.3l41.5,15.1l-7.3,20.1l-40.4,13.7
		l31.2,11.4l-4.3,11.9l-41.5-15.1l7.3-20.1l40.2-13.7l-31.1-11.3L86.4,323.3L86.4,323.3z M146.5,286.3l-14.3,24.8l4.8,7.8l-7.5,13
		l-25.9-43.5l9.1-15.7l50.4,1.1l-7.4,12.9L146.5,286.3L146.5,286.3z M136.1,286l-19.9-0.6l10.4,17L136.1,286L136.1,286z M97.8,266.1
		l9.3,2.4l-6.6,17.8l-5.4-1.3L97.8,266.1L97.8,266.1z M176.7,232.8l9.2-9.6l0.5,0.5c0.9,0.8,1.6,1.3,2.1,1.4
		c0.5,0.1,1.2-0.1,2.1-0.5c1.1-0.6,3.7-3.1,8-7.5c4.6-4.7,7.3-7.9,8.2-9.4c0.9-1.5,0.7-2.8-0.6-4.1c-1.2-1.2-2.4-1.6-3.5-1.2
		c-1.1,0.4-2.9,1.8-5.3,4.4c-9,9.3-14.6,14.9-16.8,16.6c-2.9,2.3-5.5,3.3-7.9,3c-2.4-0.2-5.1-1.8-8.1-4.7c-2.6-2.5-4.2-4.8-4.9-6.9
		c-0.7-2.1-0.4-4.3,0.7-6.6c0.6-1.4,2.2-3.6,4.6-6.5c2.4-3,5-5.9,7.9-8.9c6.2-6.4,10.4-10.5,12.6-12.2c2.2-1.7,4.4-2.6,6.6-2.7
		c1.6-0.1,3.1,0.2,4.5,0.9c1.4,0.7,3.1,2.1,5.2,4.1l-9.2,9.5c-1.4-1.4-2.7-1.7-3.9-1.1c-1.2,0.6-3.6,2.8-7.3,6.6
		c-1.2,1.3-2.7,2.9-4.5,5l-2.4,2.7c-1.2,1.3-1.8,2.5-1.9,3.4c-0.1,0.9,0.2,1.8,1.1,2.6c1.1,1.1,2.2,1.4,3.2,1c1-0.4,2.7-1.7,4.9-4
		l6.3-6.4l6.2-6.3c2.7-2.8,5-4.8,6.7-5.8c1.7-1,3.5-1.5,5.3-1.5c2.8,0.1,5.8,1.7,9.1,4.9c4.8,4.6,6.2,9.1,4.3,13.3
		c-1.7,3.5-7,10-15.9,19.3c-5.9,6.1-10.1,9.8-12.8,11.4c-2.2,1.3-4.3,1.7-6.3,1.2c-2-0.5-4-1.9-6.2-4.2c-0.3-0.3-0.5-0.5-0.5-0.5
		L176.7,232.8L176.7,232.8z M236.3,151.6l20.4,26.1l-10.6,8.3l-20.4-26.1L210.1,172l-6.8-8.7l41.7-32.6l6.8,8.7L236.3,151.6
		L236.3,151.6z M278.7,161.3l-21.4-38.7l36-20c4.7-2.6,8.6-3.6,11.5-2.8c3,0.8,5.7,3.4,8.2,7.9c2.2,3.9,3.1,7.1,2.7,9.5
		c-0.2,1.5-1.3,3.3-3.3,5.3c-0.3,0.3-0.7,0.8-1.3,1.4c0.7-0.2,1.2-0.4,1.6-0.5c1.8-0.6,3.1-1,3.9-1c0.8-0.1,1.7,0.1,2.6,0.5
		c1.5,0.7,2.9,2.2,4.3,4.6l0.7,1.3l3.2,5.8l-12,6.6l-2.1-3.7c-0.9-1.7-1.7-2.9-2.2-3.4c-0.5-0.6-1.1-0.9-1.7-1.1
		c-1.2-0.3-2.7,0.1-4.7,1.2L285,144.9l5.5,9.9L278.7,161.3L278.7,161.3z M279.7,135.4l17.8-9.9l1.9-1l2-1.2c1.3-0.9,2-1.8,2.1-2.7
		c0.1-0.9-0.3-2.3-1.3-4c-1.2-2.2-2.4-3.4-3.4-3.6c-1.1-0.2-3,0.6-5.9,2.2l-18.7,10.4L279.7,135.4L279.7,135.4z M337.6,127.9
		l-12.9-42.3l47.2-14.4l2.9,9.6l-34.3,10.5l2.2,7.2l32-9.8l2.6,8.4l-32,9.8l2.3,7.5l34.3-10.5l2.9,9.6L337.6,127.9L337.6,127.9z
		 M393.7,108.8l-6.9-43.7l38.5-6.1c5.8-0.9,10-1,12.7-0.3c3.1,0.8,5.4,2.5,6.9,5.1c1.5,2.6,2.8,7.1,3.8,13.5c1,6.2,1.3,10.6,1,13.4
		c-0.3,2.8-1.3,5.1-3.2,6.9c-0.9,0.9-2.3,1.8-4.1,2.7c-1.8,0.8-3.6,1.4-5.3,1.7L393.7,108.8L393.7,108.8z M405.4,96l22.4-3.5
		c2.7-0.4,4.6-1,5.7-1.6c1.2-0.8,2-2,2.3-3.7c0.3-1.7,0.2-4.2-0.4-7.6c-0.7-4.3-1.7-7.1-2.9-8.4c-1.2-1.3-3.4-1.7-6.5-1.2l-1.5,0.2
		l-22.6,3.6L405.4,96L405.4,96z M523.1,52.9v44.2h-21.4L475,63.9v33.2h-12.7V52.9h21.4L510.4,86V52.9H523.1L523.1,52.9z M579,96.8
		l-28.2-4.5l-5.5,7.2l-14.8-2.3l31.3-39.8l17.9,2.8l17,47.5l-14.7-2.3L579,96.8L579,96.8z M575.6,87L569,68.2L556.9,84L575.6,87
		L575.6,87z M580.4,44.1l1,9.5l-18.9,0.2l-0.7-5.5L580.4,44.1L580.4,44.1z M678.9,90.8l9.8,4.4c4.2,1.8,7.1,3.4,8.9,4.7
		c1.8,1.3,3.2,2.8,4,4.6c1.1,2.2,1.4,4.6,1,7.2c-0.4,2.6-1.8,6.4-4,11.5c-2.2,5-3.8,8.2-4.8,9.7c-2.7,4.2-6.1,6.3-10.4,6.4
		c-3.8,0.1-11.9-2.6-24.3-8.1c-5.1-2.3-9-4.2-11.9-5.8c-3.6-2-6.1-4.3-7.4-6.6c-1.3-2.4-1.7-5.2-1.1-8.6c0.3-1.9,1.5-5,3.4-9.4
		c2.9-6.5,5.2-10.9,6.8-13c1.6-2.1,3.6-3.5,6-4.2c3.3-0.9,8.4,0.2,15.2,3.3L678.9,90.8L678.9,90.8z M680,103.1
		c-8.7-3.9-13.8-6-15.4-6.3c-2-0.5-3.6-0.2-4.8,0.8c-1.2,1-2.6,3.1-4,6.4c-1.9,4.4-3,7.4-3,9c-0.1,1.6,0.8,3.1,2.5,4.3
		c1.4,1,4,2.3,7.9,4c5.3,2.3,8.9,3.9,11,4.6c2.1,0.7,3.7,1.1,5,1c1.3,0,2.4-0.7,3.3-1.9c1-1.2,2.2-3.6,3.8-7.1
		c1.8-4.1,2.6-6.9,2.3-8.5c-0.2-1-0.9-2-2.1-2.9C685.1,105.6,683,104.5,680,103.1L680,103.1z M698,150.6l23.4-37.5l33.1,20.7
		c5,3.1,8.2,5.8,9.8,8.1c1.8,2.7,2.5,5.5,1.9,8.4c-0.6,3-2.6,7.2-6,12.6c-3.3,5.3-6,8.9-8,10.8c-2.1,1.9-4.4,3-6.9,3.1
		c-1.3,0.1-3-0.2-4.9-0.7c-1.9-0.6-3.6-1.3-5.1-2.2L698,150.6L698,150.6z M715.2,148.5l19.2,12c2.3,1.5,4.1,2.3,5.3,2.5
		c1.4,0.2,2.8-0.2,4.1-1.3c1.3-1.1,2.9-3.1,4.7-6c2.3-3.7,3.4-6.5,3.3-8.3c-0.1-1.8-1.5-3.5-4.1-5.2l-1.3-0.8l-19.4-12.1
		L715.2,148.5L715.2,148.5z M755.2,189.9l30.2-32.3l30.7,28.6c3.5,3.3,5.5,6.3,5.8,9.1c0.3,2.8-0.8,5.6-3.6,8.5
		c-2.2,2.4-4.2,3.8-5.9,4.1c-1.7,0.3-4-0.3-6.8-1.8c2.3,2.9,3.5,5.1,3.6,6.6c0.1,2.2-1,4.6-3.3,7.1c-3.2,3.4-6.2,5-9.2,4.9
		c-2.9-0.1-6.4-2-10.3-5.7L755.2,189.9L755.2,189.9z M783.4,179.5l16.9,15.8c1.5,1.4,2.7,2.1,3.7,2.2c1,0.1,2-0.4,3-1.5
		c1-1,1.3-2,1.2-2.9c-0.2-0.9-1-2-2.4-3.3l-17.1-16L783.4,179.5L783.4,179.5z M771.9,191.8l17.9,16.7c1.7,1.5,3,2.4,4,2.5
		c1,0.1,2.1-0.4,3.2-1.6c1-1,1.3-2.1,1.1-3c-0.2-1-1.1-2.2-2.7-3.6l-18-16.8L771.9,191.8L771.9,191.8z M857.4,233.9l6.3,8.8
		c2.7,3.7,4.5,6.5,5.4,8.6c0.9,2,1.3,4,1.2,6c-0.2,2.5-1.1,4.7-2.8,6.8c-1.7,2-4.8,4.7-9.3,8c-4.4,3.2-7.4,5.2-9,6
		c-4.4,2.3-8.5,2.4-12.2,0.4c-3.4-1.8-9-8.2-17-19.2c-3.3-4.5-5.7-8.2-7.4-11c-2.1-3.6-3.2-6.7-3.1-9.5c0-2.7,1.2-5.4,3.4-7.9
		c1.2-1.4,3.8-3.6,7.6-6.4c5.8-4.2,9.9-6.9,12.4-7.9c2.5-1.1,4.9-1.3,7.3-0.6c3.3,0.9,7.1,4.4,11.5,10.4L857.4,233.9L857.4,233.9z
		 M852.2,245.1c-5.6-7.7-9-12.1-10.2-13.2c-1.5-1.4-3-2-4.6-1.8c-1.6,0.2-3.8,1.4-6.7,3.5c-3.9,2.8-6.3,4.9-7.1,6.3
		c-0.9,1.4-0.9,3,0,4.9c0.7,1.5,2.3,4,4.8,7.4c3.4,4.7,5.8,7.8,7.2,9.5c1.4,1.7,2.7,2.8,3.8,3.4c1.1,0.6,2.4,0.6,3.8,0
		c1.4-0.6,3.7-2,6.8-4.2c3.6-2.6,5.7-4.7,6.2-6.2c0.4-1,0.2-2.2-0.4-3.6C855.4,249.8,854.2,247.8,852.2,245.1L852.2,245.1z
		 M845,294.6l39-20.8l19.3,36.4c2.5,4.8,3.4,8.7,2.6,11.6c-0.8,2.9-3.5,5.6-8,8c-4,2.1-7.1,2.9-9.6,2.5c-1.5-0.3-3.3-1.4-5.3-3.4
		c-0.3-0.3-0.8-0.7-1.3-1.3c0.2,0.7,0.4,1.2,0.5,1.6c0.6,1.8,0.9,3.1,1,3.9c0.1,0.8-0.1,1.7-0.5,2.6c-0.7,1.5-2.2,2.9-4.6,4.2
		l-1.3,0.6l-5.8,3.1l-6.4-12.1l3.7-2c1.7-0.9,2.9-1.6,3.5-2.1c0.6-0.5,1-1,1.2-1.7c0.3-1.2,0-2.7-1.1-4.7l-10.6-19.8l-10,5.3
		L845,294.6L845,294.6z M870.9,296.1l9.6,18l1,1.9l1.2,2.1c0.9,1.3,1.8,2,2.7,2.1c0.9,0.1,2.3-0.3,4-1.2c2.2-1.2,3.4-2.3,3.6-3.4
		c0.2-1.1-0.5-3.1-2.1-6l-10-18.9L870.9,296.1L870.9,296.1z M935.3,399.9L893,412.8l-6.3-20.5l24-35.2l-31.8,9.7l-3.7-12.1
		l42.3-12.9l6.3,20.5l-23.9,35.2l31.7-9.7L935.3,399.9L935.3,399.9z M908.1,466.1l-4-28.3l-8.5-3.2l-2.1-14.9l47.2,18.3l2.5,18
		l-40.4,30.1l-2.1-14.7L908.1,466.1L908.1,466.1z M916.5,459.9l16-11.8l-18.6-7L916.5,459.9L916.5,459.9z M958.9,452l-8.8,3.8
		l-5.7-18.1l5-2.3L958.9,452L958.9,452z M915.5,509.9l-0.9,13.3l-0.7-0.1c-1.2-0.1-2.1,0-2.5,0.2c-0.5,0.2-0.9,0.8-1.3,1.8
		c-0.4,1.1-0.9,4.8-1.3,10.9c-0.5,6.5-0.5,10.7-0.3,12.5c0.3,1.7,1.3,2.6,3.1,2.7c1.7,0.1,2.9-0.3,3.5-1.3c0.6-1,1-3.3,1.3-6.8
		c0.9-13,1.6-20.8,2.2-23.6c0.7-3.6,2.1-6,4.1-7.4c2-1.3,5-1.8,9.2-1.5c3.6,0.3,6.4,1,8.2,2.1c1.8,1.2,3.1,3,3.7,5.5
		c0.4,1.5,0.6,4.1,0.7,7.9c0.1,3.8,0,7.8-0.3,11.9c-0.6,8.9-1.2,14.7-1.8,17.4c-0.6,2.7-1.7,4.8-3.3,6.3c-1.2,1.1-2.5,1.8-4,2.2
		c-1.5,0.3-3.7,0.4-6.6,0.2l0.9-13.1c1.9,0.1,3.2-0.4,3.7-1.6c0.5-1.2,1-4.5,1.4-9.7c0.1-1.7,0.2-4,0.3-6.7l0.1-3.6
		c0-1.8-0.2-3.1-0.7-3.8c-0.5-0.8-1.3-1.2-2.5-1.3c-1.5-0.1-2.6,0.3-3.1,1.3c-0.5,0.9-0.9,3-1.2,6.2l-0.8,9l-0.7,8.8
		c-0.3,3.9-0.7,6.8-1.4,8.7c-0.6,1.9-1.7,3.4-3.1,4.5c-2.2,1.7-5.5,2.4-10.1,2.1c-6.7-0.5-10.6-2.9-11.8-7.5c-1-3.8-1.1-12.1-0.2-25
		c0.6-8.4,1.4-14.1,2.5-16.9c0.9-2.4,2.3-4.1,4.1-5c1.8-0.9,4.3-1.2,7.4-0.8c0.4,0.1,0.7,0.1,0.7,0.1L915.5,509.9L915.5,509.9z
		 M947.1,539.6l9.1-15.7l4.1,2l-4.3,14.2l2.3,14.5l-4.3,1.6L947.1,539.6L947.1,539.6z M934.6,596.7l-16.3-3.5l-1.4,6.7l12.5,21.3
		l-3.9,18.2l-16.1-29.4L881.7,633l4.1-19.3l20.6-15.9l1.4-6.7l-16.5-3.5l2.8-13.2l43.2,9.2L934.6,596.7L934.6,596.7z M907.7,681.2
		l-4.4,9.8c-1.8,4.2-3.4,7.1-4.7,8.9c-1.3,1.8-2.8,3.2-4.6,4c-2.2,1.1-4.6,1.4-7.2,1c-2.6-0.4-6.4-1.8-11.5-4
		c-5-2.2-8.2-3.8-9.7-4.8c-4.2-2.7-6.3-6.1-6.4-10.4c-0.1-3.8,2.6-11.9,8.1-24.3c2.3-5.1,4.2-9,5.8-11.9c2-3.6,4.3-6.1,6.6-7.4
		c2.4-1.3,5.2-1.7,8.6-1.1c1.9,0.3,5,1.5,9.4,3.4c6.5,2.9,10.9,5.2,13,6.8c2.1,1.6,3.5,3.6,4.2,6c0.9,3.3-0.2,8.4-3.3,15.2
		L907.7,681.2L907.7,681.2z M895.4,682.3c3.9-8.7,6-13.8,6.3-15.4c0.5-2,0.2-3.6-0.8-4.8c-1-1.2-3.1-2.6-6.4-4c-4.4-1.9-7.4-3-9-3
		c-1.6-0.1-3,0.8-4.3,2.5c-1,1.4-2.3,4-4,7.9c-2.3,5.3-3.9,8.9-4.6,11c-0.7,2.1-1.1,3.7-1,5c0,1.2,0.7,2.4,1.9,3.3
		c1.2,1,3.6,2.2,7.1,3.8c4.1,1.8,6.9,2.6,8.5,2.3c1-0.2,2-0.9,2.9-2.1C892.9,687.5,894,685.4,895.4,682.3L895.4,682.3z M878.3,736.3
		l-27.8-18.1l-16.6,25.6l-9.3-6l24-36.9l37.1,24.1L878.3,736.3L878.3,736.3z M797.9,781.3l18.8-21.6l-3.2-8.5l9.8-11.3l17.2,47.6
		l-11.9,13.7l-49.2-10.7l9.8-11.2L797.9,781.3L797.9,781.3z M808,783.7l19.4,4.3l-7-18.6L808,783.7L808,783.7z"/>
	<path class="st4" d="M497.8,110.8c214.6,0,389.6,175,389.6,389.6S712.4,890,497.8,890S108.2,715,108.2,500.4
		S283.2,110.8,497.8,110.8L497.8,110.8z"/>
	<path class="st5" d="M497.8,31.5c258.3,0,468.9,210.6,468.9,468.9S756.1,969.3,497.8,969.3S28.9,758.7,28.9,500.4
		S239.5,31.5,497.8,31.5L497.8,31.5z"/>
	<path class="st3" d="M367.1,893.9l-16.6,41l-19.8-8L318.4,886l-12.5,30.8l-11.8-4.8l16.6-41l19.9,8l12.3,40.7l12.4-30.7
		L367.1,893.9L367.1,893.9z M420.2,907.5l-10.7,42.9l-13.1-3.3l10.7-42.9L420.2,907.5L420.2,907.5z M486.5,925.8l-1.2,33.1
		l-13.5-0.5l1.2-33.1l-19.7-0.7l0.4-11l52.9,1.8l-0.4,11L486.5,925.8L486.5,925.8z M548.2,957.3l-8.4-43.4l40.4-7.9
		c5.3-1,9.3-0.7,11.8,0.9c2.6,1.6,4.3,5,5.3,10c0.9,4.4,0.7,7.7-0.4,9.9c-0.7,1.4-2.3,2.7-4.8,4c-0.4,0.2-0.9,0.5-1.7,0.9
		c0.7,0,1.3,0,1.6,0c1.9-0.1,3.2,0,4,0.2c0.8,0.2,1.6,0.6,2.3,1.3c1.2,1.1,2.1,3,2.7,5.7l0.2,1.4l1.3,6.5l-13.4,2.6l-0.8-4.2
		c-0.4-1.9-0.7-3.2-1-3.9c-0.3-0.7-0.7-1.2-1.3-1.6c-1-0.7-2.6-0.8-4.8-0.3l-22.1,4.3l2.2,11.2L548.2,957.3L548.2,957.3z M557.2,933
		l20-3.9l2.1-0.4l2.3-0.6c1.5-0.5,2.4-1.1,2.8-2c0.4-0.8,0.4-2.2,0-4.2c-0.5-2.5-1.2-4-2.2-4.4c-1-0.5-3.1-0.4-6.3,0.2l-21,4.1
		L557.2,933L557.2,933z M685.7,910.1l-26.5,10.7l-1,9l-13.9,5.6l6.3-50.2l16.8-6.8l39,31.9l-13.8,5.6L685.7,910.1L685.7,910.1z
		 M677.7,903.4l-15.3-12.7l-2.2,19.8L677.7,903.4L677.7,903.4z"/>
	<polygon class="st0" points="728.1,823.3 747.1,836.2 765.5,822 759.1,844.1 778.3,857.2 755.3,857.9 748.8,880.3 741,858.6 
		717.8,859.3 735.9,845.2 728.1,823.3 	"/>
	<g>
	</g>
	<polygon class="st0" points="228.6,823.3 247.6,836.2 266,822 259.6,844.1 278.9,857.2 255.8,857.9 249.3,880.3 241.5,858.6 
		218.3,859.3 236.4,845.2 228.6,823.3 	"/>
	<path class="st6" d="M410.3,487.3c20.2,2.4,38.6,6.3,55.4,11.9c16.8,5.5,32.3,13.1,46.7,22.6l-52.3-171.2L410.3,487.3L410.3,487.3z
		 M411.8,308.3c1.4-3.4,2.4-7,3.1-10.5c0.7-3.4,1.1-6.8,1.1-10.1c0-5.3-1.5-9.9-4.5-13.5c-3-3.7-7.8-7.1-14.6-10.1v-19.8h216.9v19.8
		c-6.1,2.4-10.8,5.3-14.3,9.3c-3.4,3.8-5.2,8-5.2,12.4c0,2.7,0.4,5.7,0.8,9c0.6,3.2,1.9,7.8,3.7,13.9l108.3,319.9
		c10.2,29.9,19.2,49.2,26.9,57.6c7.6,8.6,17.5,13.1,29.6,13.8v19.8H520V700c13-2.4,22.3-6.7,28-12.8c5.7-6.3,8.6-15.3,8.6-27.2
		c0-30.9-15.7-57.9-46.8-81.2c-31.3-23.2-70.8-36.4-118.6-39.3l-27.8,78.3c-3.6,10.2-6.2,19.5-8.1,27.7c-1.8,8.3-2.7,15.2-2.7,20.8
		c0,11.2,3.1,19.5,9.4,25.2c6.3,5.7,15.6,8.6,27.8,8.6v19.8H228.6V700c16.3-3.2,29.4-10.2,39.3-21c10-10.8,21.4-33.5,34.1-68.1
		L411.8,308.3L411.8,308.3z"/>
	<path class="st3" d="M398.8,607.5h19.1l-2,9.7c4.8-4.1,9.2-7.1,13.4-8.8c4.2-1.8,8.5-2.6,13.1-2.6c6.1,0,11,1.8,14.5,5.3
		c3.5,3.5,5.3,8.2,5.3,14c0,2.6-0.8,7.6-2.3,14.9l-8.8,42.3H431l8.9-42.4c1.3-6.3,2-10.1,2-11.3c0-2.6-0.7-4.6-2.3-6.1
		c-1.5-1.5-3.6-2.2-6.4-2.2c-2.9,0-6.2,1.2-9.8,3.7c-3.6,2.5-6.5,5.8-8.5,9.8c-1.5,2.9-3.2,8.9-5.1,17.8l-6.4,30.6h-20.2
		L398.8,607.5L398.8,607.5z M494.4,579.1h20.2l-3.8,18.3h-20.2L494.4,579.1L494.4,579.1z M488.5,607.5h20.2L493,682.2h-20.2
		L488.5,607.5L488.5,607.5z M529.8,607.5h19l-1.9,9.1c7.4-7.2,15.2-10.8,23.3-10.8c5.6,0,10,1.2,13,3.5c3,2.4,5,5.6,5.8,9.7
		c2.6-3.7,6.3-6.9,11.1-9.4c4.8-2.5,9.8-3.8,15-3.8c6,0,10.6,1.6,13.9,4.8c3.3,3.2,5,7.4,5,12.6c0,2.6-0.6,7-2,13.4l-9.6,45.6h-20.2
		l9.5-45.6c1.2-5.7,1.8-8.9,1.8-9.7c0-2.1-0.6-3.7-1.8-4.9c-1.2-1.2-3.1-1.8-5.6-1.8c-5,0-9.5,2.6-13.4,7.9
		c-2.9,3.8-5.3,10.5-7.3,20.2l-7.1,33.9h-20.2l9.4-45.1c1.1-5.2,1.6-8.6,1.6-10.1c0-2-0.7-3.6-2-4.8c-1.3-1.3-3.2-1.9-5.5-1.9
		c-2.2,0-4.5,0.6-6.8,2s-4.4,3.1-6.1,5.4c-1.8,2.3-3.3,5.2-4.5,8.9c-0.6,1.7-1.5,5.5-2.7,11.4l-7.2,34.3h-20.2L529.8,607.5
		L529.8,607.5z M660.3,607.5h20.2l-9.2,44.2c-1.1,5.3-1.7,8.6-1.7,9.9c0,2.1,0.8,4,2.4,5.5c1.6,1.5,3.6,2.3,6.1,2.3
		c1.8,0,3.5-0.4,5.3-1c1.7-0.7,3.5-1.7,5.3-3.1c1.8-1.4,3.5-3,4.9-4.7c1.5-1.8,2.8-4.1,4.1-7c0.9-2.2,1.9-5.7,2.9-10.6l7.5-35.6
		h20.2l-15.6,74.6h-18.8l2.1-10.1c-8.3,7.9-17.2,11.9-26.9,11.9c-6.1,0-11-1.8-14.5-5.3c-3.5-3.5-5.3-8.2-5.3-14.1
		c0-2.6,0.8-7.7,2.4-15.4L660.3,607.5L660.3,607.5z M732.2,661.3l19.5-3.1c1.8,4.1,3.9,7,6.5,8.8c2.6,1.7,6.1,2.6,10.5,2.6
		c4.6,0,8.3-1,11-3.1c1.9-1.4,2.9-3.1,2.9-5.1c0-1.4-0.5-2.6-1.5-3.6c-1-1-3.8-2.3-8.4-3.8c-12.2-4-19.7-7.2-22.6-9.5
		c-4.6-3.6-6.8-8.4-6.8-14.3s2.2-11,6.6-15.3c6.1-6,15.3-8.9,27.4-8.9c9.6,0,16.9,1.8,21.8,5.3c4.9,3.5,8,8.3,9.4,14.3l-18.6,3.2
		c-1-2.7-2.6-4.8-4.8-6.1c-3-1.8-6.6-2.8-10.8-2.8c-4.2,0-7.2,0.7-9.1,2.1c-1.8,1.4-2.8,3-2.8,4.9c0,1.9,0.9,3.4,2.8,4.6
		c1.2,0.7,4.9,2.1,11.3,3.9c9.8,2.9,16.4,5.7,19.7,8.4c4.7,3.9,7,8.6,7,14c0,7.1-3,13.2-8.9,18.4c-5.9,5.2-14.3,7.8-25.2,7.8
		c-10.8,0-19.1-2-25-5.9C738.3,674.1,734.3,668.5,732.2,661.3L732.2,661.3z"/>
	<path class="st7" d="M361.1,635c-0.5-23.5,0.2-42.8,2.1-57.9c2.1-17.4,5.9-31.1,11.4-41.2l-0.1-0.7c-14.6,2.8-26.3,13.5-35.3,32.1
		c-7.5,15.4-13.2,36.2-17.2,62.5L361.1,635L361.1,635z M315.2,640.6c-10.3-1.6-19-2.7-25.9-3.3c-7-0.6-13.8-0.8-20.4-0.7
		c-8.1,0.1-15.2,0.9-21.2,2.8c-5.8,1.8-9.9,2.2-19.1,7.2c-9.7,5.3-16.5,10.1-23.7,18.3c-7.2,8.2-10.2,15.7-8.9,22.6
		c1.9,6.8,13.8,15.2,30.6,14.4c8.5-0.4,14.4-0.2,23.9-0.7c20.5-1.1,32.2-4.5,41.5-11.3C304,681,311.7,664.6,315.2,640.6L315.2,640.6
		z M374.1,637.4c13.3,1.4,14.4,0.3,15.9-0.1c9-2.3,24-14.1,27.1-16.5l-0.6,3.5c-4.3,3.5-19.3,21.9-23.8,23.4
		c-4.5,1.4-10.8,2.2-18.9,2.4c0.6,3.4,0.2,14.9-1.2,34.6c-1.6,22.4-3.8,37.9-6.6,46.6c-1,3-5.1,5.1-7.3,5.9c0,0,0.5-1.4,0.9-3
		c2.9-11.8,3.3-25.8,3.2-41.8c0-11.4-0.7-25.9-2.2-43.4l-40.8-8.5c-5.8,28.4-13.7,47.7-23.8,58c-10.1,10.3-28.4,19.5-50.2,19.9
		c-16.1,0.3-23.9,0.7-31.9-3.4c-10.3-5.4-20.6-17.2-22.5-27.4c-1.7-9.5,1.8-19.1,10.5-28.7c8.7-9.6,19.5-16.1,31.8-20.9
		c6.9-2.7,12.4-4.5,21.8-6.3c8.2-1.5,21.3-3,32.3-3.2l29.5,0.8c4-27,6.4-42.7,7.3-47.3c3.1-14,7.7-24.9,13.7-32.7
		c4.4-5.8,9.6-10.4,15.6-13.8s12.7-5.2,20.2-5.3c2.2,0,3.9,0,5.1,0.1c1.2,0.1,3.6,0.4,7.1,1.1c-7.1,10.4-11.3,25.6-12.4,45.7
		c-0.4,5.5-0.3,25.9,0.3,61.2L374.1,637.4z"/>
	<g>
		<rect x="360" y="772.1" class="st2" width="297.3" height="55"/>
		<path class="st3" d="M373.4,772.8c0-3.7,0.8-6.3,2.3-7.6c1.5-1.4,4.5-2.1,9-2.1h25.4c4.5,0,7.5,0.7,9,2.1c1.5,1.4,2.3,3.9,2.3,7.6
			v3.2c0,2.4-0.4,4.2-1.1,5.5c-0.7,1.3-2.5,2.8-5.3,4.5L386,803.8h28.8v-7.3l9.1,2.6v3.9c0,3.7-0.8,6.3-2.3,7.6
			c-1.5,1.4-4.6,2.1-9,2.1h-41.6v-4.5c0-2.2,0.5-3.9,1.4-5.1c0.9-1.2,2.6-2.5,4.9-4l34.2-21.1v-6.5h-28.2v10.2l-9.8-2.5V772.8z"/>
		<path class="st3" d="M439,774.9c0-4.5,0.8-7.6,2.4-9.3c1.6-1.6,4.6-2.5,8.9-2.5h33.5c4.4,0,7.4,0.8,9,2.5c1.6,1.6,2.4,4.7,2.4,9.3
			V801c0,4.5-0.8,7.6-2.4,9.3c-1.6,1.6-4.6,2.5-9,2.5h-33.5c-4.4,0-7.3-0.8-8.9-2.5c-1.6-1.6-2.4-4.7-2.4-9.3V774.9z M449.3,803.8
			h35.4v-32.2h-35.4V803.8z"/>
		<path class="st3" d="M508.9,774.9c0-4.5,0.8-7.6,2.4-9.3s4.6-2.5,8.9-2.5h33.5c4.4,0,7.4,0.8,9,2.5c1.6,1.6,2.4,4.7,2.4,9.3V801
			c0,4.5-0.8,7.6-2.4,9.3c-1.6,1.6-4.6,2.5-9,2.5h-33.5c-4.4,0-7.3-0.8-8.9-2.5s-2.4-4.7-2.4-9.3V774.9z M519.2,803.8h35.4v-32.2
			h-35.4V803.8z"/>
		<path class="st3" d="M591.7,812.7c-4.5,0-7.5-0.7-9-2.1c-1.5-1.4-2.3-3.9-2.3-7.6v-4l10.2-2.1v6.9h26.7c1.9,0,3.2-0.3,3.8-0.9
			c0.6-0.6,1-1.8,1-3.6v-3.6c0-1.8-0.3-3-1-3.6c-0.7-0.6-1.9-0.9-3.8-0.9h-16.7v-8.1h14.9c1.9,0,3.1-0.3,3.7-0.9
			c0.6-0.6,0.9-1.8,0.9-3.6v-2.5c0-1.8-0.3-3.1-0.9-3.7c-0.6-0.6-1.9-0.9-3.7-0.9h-24.5v6.2l-9.8-1.8v-3.1c0-3.7,0.8-6.3,2.3-7.6
			c1.5-1.4,4.5-2.1,9-2.1h26.8c4.5,0,7.5,0.7,9,2.1c1.5,1.4,2.3,3.9,2.3,7.6v4.5c0,2.9-0.7,5.1-2.1,6.5s-3.9,2.4-7.4,3
			c4,0.4,6.9,1.4,8.7,3c1.8,1.6,2.8,4,2.8,7.1v5.2c0,4.1-0.9,6.8-2.6,8.4c-1.7,1.5-4.9,2.3-9.4,2.3H591.7z"/>
	</g>
</g>
<g>
</g>
<g>
</g>
<g>
</g>
<g>
</g>
<g>
</g>
</svg>
